<svg version="1.1" id="Layer_1" xmlns="http://www.w3.org/2000/svg" x="0" y="0" viewBox="0 0 189 56.3" xml:space="preserve"><style>.st0{fill:#d6c1b2}.st1{fill:#fbb236}</style><path class="st0" d="M4.1 53.7v.9H.7v-5.7h3.4v.9H1.8v1.4h2v.9h-2v1.5h2.3zm6.6.9H9.4L8 52.4l-1.3 2.2H5.4l1.9-3-1.7-2.7h1.3l1.2 2 1.2-2h1.2l-1.7 2.7 1.9 3zm5.3-1.2v1c-.5.1-.9.2-1.3.2s-.9-.1-1.2-.2c-.4-.1-.7-.3-1-.5-.3-.2-.5-.5-.7-.9-.2-.4-.2-.8-.2-1.2 0-.5.1-.9.2-1.2.1-.4.3-.7.6-.9.3-.3.6-.4 1-.6.4-.1.8-.2 1.3-.2.4 0 .9.1 1.4.2l-.1 1c-.4-.2-.8-.3-1.2-.3-.4 0-.7.1-1 .2-.3.2-.5.4-.7.7s-.2.6-.2 1 .1.7.2 1c.2.3.4.5.7.7.3.2.6.3 1 .3.3 0 .7-.1 1.2-.3zm6.9 1.2h-1.3l-.5-1.3h-2.4l-.5 1.3H17l2.2-5.7h1.3l2.4 5.7zm-2.1-2.2l-.7-2s-.1-.2-.1-.4c0 .1 0 .2-.1.3s0 .2-.1.2l-.7 1.9h1.7zm5.9 2.2h-1.4l-2-5.7h1.2l1.2 3.7.3.9c.1-.4.2-.7.3-1l1.2-3.6h1.1l-1.9 5.7zm8.1 0h-1.3l-.5-1.3h-2.4l-.5 1.3H29l2.2-5.7h1.3l2.3 5.7zm-2.1-2.2l-.7-2s-.1-.2-.1-.4c0 .1 0 .2-.1.3s0 .2-.1.2l-.7 1.9h1.7zm5.2 2.2h-1.2v-4.8h-1.6v-.9h4.4v.9h-1.6v4.8zm4.2 0h-1.2v-5.7h1.2v5.7zm7.3-2.8c0 .6-.1 1.1-.3 1.5-.2.4-.5.8-1 1-.4.2-.9.4-1.5.4s-1.1-.1-1.5-.4c-.4-.3-.7-.6-1-1.1-.2-.5-.3-1-.3-1.6s.1-1.1.3-1.5c.2-.4.5-.8 1-1 .4-.2.9-.4 1.5-.4.4 0 .8.1 1.2.2.3.1.6.4.9.6.2.3.4.6.5 1 .1.4.2.8.2 1.3zm-1.2 0c0-.2 0-.5-.1-.7-.1-.2-.2-.5-.3-.7-.1-.2-.3-.4-.5-.5-.2-.1-.4-.2-.7-.2-.4 0-.6.1-.9.3-.2.2-.4.5-.5.8-.1.3-.2.7-.2 1 0 .3.1.7.2 1 .1.3.3.6.5.8.2.2.5.3.9.3.3 0 .5-.1.7-.2.2-.1.4-.3.5-.5.1-.2.2-.4.3-.7.1-.3.1-.5.1-.7zm7.6 2.8h-1.4l-1.9-3.4-.5-1c.1.6.1 1.1.1 1.5v3H51V49h1.4l1.9 3.4c.1.1.1.2.1.3 0 .1.1.2.1.3.1.1.1.3.2.4-.1-.4-.1-.9-.1-1.4v-3.1h1.1v5.7zm4.9 1.7h-.9l2.8-7.9h.9l-2.8 7.9zm9.6-1.7h-1.2v-4.8h-1.6v-.9h4.4v.9h-1.6v4.8zm4.2 0h-1.2v-5.7h1.9c.4 0 .7 0 1 .1.3.1.6.2.7.5.2.2.3.5.3.9s-.1.7-.3.9c-.2.2-.5.4-.8.4.2.1.3.2.4.3.1.1.2.3.3.6l.8 2h-1.3l-.6-1.6c-.1-.2-.2-.4-.3-.5-.1-.1-.2-.2-.4-.2h-.6v2.3zm0-3.2h.5c.3 0 .5-.1.7-.2.2-.1.3-.3.3-.6 0-.5-.3-.8-.9-.8h-.6v1.6zm10 3.2h-1.3l-.5-1.3h-2.4l-.5 1.3h-1.2l2.2-5.7h1.3l2.4 5.7zm-2.1-2.2l-.7-2s-.1-.2-.1-.4c0 .1 0 .2-.1.3 0 .1 0 .2-.1.2l-.7 1.9h1.7zm8.2 2.2h-1.4l-1.9-3.4-.5-1c.1.6.1 1.1.1 1.5v3h-1.1V49h1.4l1.9 3.4c.1.1.1.2.1.3 0 .1.1.2.1.3.1.1.1.3.2.4-.1-.4-.1-.9-.1-1.4v-3.1h1.1v5.7zm1.8-.1l.1-1c.5.2.9.4 1.3.4.3 0 .5-.1.7-.2s.3-.3.3-.6-.1-.4-.3-.5c-.2-.1-.5-.3-.9-.4-.4-.2-.8-.4-1-.6-.2-.2-.3-.6-.3-1s.1-.7.3-.9.4-.4.7-.5c.3-.1.6-.2 1-.2.5 0 .9.1 1.4.2l-.1.9c-.4-.2-.8-.3-1.2-.3-.2 0-.5.1-.6.2-.2.1-.3.3-.3.5s.1.4.2.5c.1.1.4.2.9.4s.8.4 1.1.7c.2.2.3.6.3 1 0 .3-.1.6-.2.8-.1.2-.3.4-.5.6-.2.1-.4.3-.7.3-.3.1-.5.1-.8.1-.4-.2-.9-.3-1.4-.4zm6.5-2.1v2.2h-1.2v-5.7h1.6c.3 0 .6 0 .9.1.3.1.5.1.7.3.2.2.4.4.5.6.1.2.2.5.2.8 0 .3-.1.6-.2.8-.1.2-.3.4-.5.6-.2.1-.4.3-.7.3-.3.1-.6.1-.9.1 0 0-.2-.1-.4-.1zm0-.8h.5c.2 0 .3-.1.4-.1.1-.1.2-.1.3-.3.1-.1.1-.3.1-.5 0-.3-.1-.5-.2-.6-.1-.1-.3-.2-.5-.2s-.4 0-.7-.1v1.8zm9.5.2c0 .6-.1 1.1-.3 1.5-.2.4-.5.8-1 1-.4.2-.9.4-1.5.4s-1.1-.1-1.5-.4c-.4-.3-.7-.6-1-1.1-.2-.5-.3-1-.3-1.6s.1-1.1.3-1.5c.2-.4.5-.8 1-1 .4-.2.9-.4 1.5-.4.4 0 .8.1 1.2.2.4.1.6.4.9.6.2.3.4.6.5 1 .1.4.2.8.2 1.3zm-1.2 0c0-.2 0-.5-.1-.7-.1-.2-.2-.5-.3-.7-.1-.2-.3-.4-.5-.5-.2-.1-.4-.2-.7-.2-.4 0-.6.1-.9.3-.2.2-.4.5-.5.8-.1.3-.2.7-.2 1 0 .3.1.7.2 1 .1.3.3.6.5.8.2.2.5.3.9.3.3 0 .5-.1.7-.2.2-.1.4-.3.5-.5.1-.2.2-.4.3-.7 0-.3.1-.5.1-.7zm4.1 2.8h-1.2v-5.7h1.9c.4 0 .7 0 1 .1.3.1.6.2.7.5.2.2.3.5.3.9s-.1.7-.3.9-.5.4-.8.4c.2.1.3.2.4.3.1.1.2.3.3.6l.8 2h-1.3l-.6-1.6c-.1-.2-.2-.4-.3-.5-.1-.1-.2-.2-.4-.2h-.6v2.3zm0-3.2h.5c.3 0 .5-.1.7-.2.2-.1.3-.3.3-.6 0-.5-.3-.8-.9-.8h-.6v1.6zm6.8 3.2h-1.2v-4.8h-1.6v-.9h4.4v.9h-1.6v4.8z"/><path class="st1" d="M65.7 9.5h11l-.6 2.6h-7.8l-1.1 5.3h7.2l-.5 2.6h-7.2l-1.3 6h8.1l-.6 2.7H61.6l4.1-19.2zM79 14.6h3.1l-3 14.1H76l3-14.1zm1.1-5.7h3.3l-.7 3.2h-3.3l.7-3.2zm7.4.6h3.3l-3.5 16.6h7.9l-.6 2.7H83.4l4.1-19.3zm13.7 0h3.3L101 26.1h7.9l-.6 2.7H97.1l4.1-19.3zm13.6 0h11l-.6 2.6h-7.8l-1.1 5.3h7.2l-.6 2.6h-7.2l-1.3 6h8.1l-.6 2.7h-11.2l4.1-19.2zm18.3 2.6l-5.7.1.6-2.7h14.5l-.6 2.7-5.4-.1-3.6 16.6h-3.3l3.5-16.6zm15.9 0l-5.7.1.6-2.7h14.5l-.6 2.7-5.4-.1-3.6 16.6h-3.3l3.5-16.6zm11.8-2.6h11l-.6 2.6h-7.8l-1.1 5.3h7.2L169 20h-7.2l-1.3 6h8.1l-.6 2.7h-11.2l4-19.2zM15.6 28.6L22.1 0H28l8.5 23.7L42 0h4.2l-6.6 28.6h-5.8L25.2 4.8l-5.1 23.8z"/><path class="st0" d="M49 0l-6.9 28.6h7.2L68.8 3.1h48.3l2.1-3.1H66L47.4 24.2l6-24.2zM0 33.5h157.7v1.8H0zm0 9.7h189v.8H0z"/><path class="st1" d="M172 39.5h8.2v8.2H172z"/><path fill="#fde053" d="M144.4 39.5h8.2v8.2h-8.2z"/><path fill="#050505" d="M128.2 39.5h8.2v8.2h-8.2z"/><path class="st0" d="M175.6 23.3h1.1l-1.1 5.4h-1.1l1.1-5.4zm2.4 0h1.4c.8 2.8 1.1 4 1.1 4.3 0-.3.2-1 .3-1.5l.6-2.8h1l-1.1 5.4h-1.4c-.8-2.7-1.1-4.1-1.2-4.5 0 .3-.2 1.3-.3 1.8l-.5 2.6h-1l1.1-5.3zm4.9 3.1c0-1.8 1.4-3.1 3.3-3.1.6 0 1 .1 1.4.3l-.3.9c-.3-.2-.7-.3-1.1-.3-1.3 0-2.1.9-2.1 2.2 0 1 .6 1.6 1.6 1.6.4 0 .8-.1 1.1-.2l-.2 1c-.3.1-.6.2-1.1.2-1.5-.2-2.6-1-2.6-2.6zm5 1.2h1.1l-.2 1.1h-1.1l.2-1.1z"/></svg>